<?xml version="1.0" encoding="UTF-8" standalone="no"?>
<svg xmlns="http://www.w3.org/2000/svg" width="2033" height="1179" viewBox="0 0 2033 1179">
  <g fill-rule="evenodd" stroke="none">
    <g fill="#0a1d57"><path d="M969,0 L966,3 L959,3 L958,4 L952,4 L951,5 L945,5 L944,6 L940,6 L939,7 L935,7 L934,8 L930,8 L929,9 L925,9 L924,10 L921,10 L920,11 L916,11 L915,12 L912,12 L911,13 L908,13 L907,14 L905,14 L904,15 L901,15 L900,16 L898,16 L897,17 L894,17 L893,18 L891,18 L890,19 L888,19 L887,20 L885,20 L884,21 L882,21 L881,22 L879,22 L878,23 L876,23 L875,24 L873,24 L872,25 L870,25 L869,26 L868,26 L867,27 L865,27 L864,28 L863,28 L862,29 L860,29 L859,30 L858,30 L857,31 L855,31 L854,32 L853,32 L852,33 L850,33 L849,34 L848,34 L847,35 L846,35 L845,36 L844,36 L843,37 L842,37 L841,38 L839,38 L838,39 L837,39 L836,40 L835,40 L834,41 L833,41 L832,42 L831,42 L830,43 L829,43 L828,44 L827,44 L826,45 L825,45 L824,46 L823,46 L822,47 L821,47 L819,49 L818,49 L817,50 L816,50 L815,51 L814,51 L813,52 L812,52 L810,54 L809,54 L808,55 L807,55 L805,57 L804,57 L803,58 L802,58 L800,60 L799,60 L797,62 L796,62 L795,63 L794,63 L792,65 L791,65 L789,67 L788,67 L785,70 L784,70 L782,72 L781,72 L778,75 L777,75 L774,78 L773,78 L770,81 L769,81 L765,85 L764,85 L759,90 L758,90 L750,98 L749,98 L727,120 L727,121 L720,128 L720,129 L714,135 L714,136 L710,140 L710,141 L707,144 L707,145 L704,148 L704,149 L701,152 L701,153 L699,155 L699,156 L697,158 L697,159 L694,162 L694,163 L692,165 L692,166 L691,167 L691,168 L689,170 L689,171 L687,173 L687,174 L686,175 L686,176 L684,178 L684,179 L683,180 L683,181 L681,183 L681,184 L680,185 L680,186 L679,187 L679,188 L678,189 L678,190 L676,192 L676,193 L675,194 L675,195 L674,196 L674,197 L673,198 L673,199 L672,200 L672,201 L671,202 L671,203 L670,204 L670,205 L669,206 L669,207 L668,208 L668,209 L667,210 L667,212 L666,213 L666,214 L665,215 L665,216 L664,217 L664,218 L663,219 L663,220 L662,221 L662,223 L661,224 L661,225 L660,226 L660,228 L659,229 L659,230 L658,231 L658,233 L657,234 L657,235 L656,236 L656,238 L655,239 L655,241 L654,242 L654,243 L653,244 L653,246 L652,247 L652,249 L651,250 L651,252 L650,253 L650,255 L649,256 L649,258 L648,259 L648,262 L647,263 L647,265 L646,266 L646,269 L645,270 L645,272 L644,273 L644,276 L643,277 L643,280 L642,281 L642,284 L641,285 L641,288 L640,289 L640,293 L639,294 L639,298 L638,299 L638,303 L637,304 L637,309 L636,310 L636,315 L635,316 L635,322 L634,323 L634,329 L633,330 L633,339 L632,340 L632,352 L631,353 L631,401 L632,402 L632,414 L633,415 L633,424 L634,425 L634,432 L635,433 L635,439 L636,440 L636,445 L637,446 L637,451 L638,452 L638,456 L639,457 L639,461 L640,462 L640,465 L641,466 L641,470 L642,471 L642,474 L643,475 L643,478 L644,479 L644,481 L645,482 L645,485 L646,486 L646,489 L647,490 L647,492 L648,493 L648,495 L649,496 L649,499 L650,500 L650,502 L651,503 L651,505 L652,506 L652,508 L653,509 L653,511 L654,512 L654,513 L655,514 L655,516 L656,517 L656,519 L657,520 L657,521 L658,522 L658,524 L659,525 L659,527 L660,528 L660,529 L661,530 L661,531 L662,532 L662,534 L663,535 L663,536 L664,537 L664,538 L665,539 L665,541 L666,542 L666,543 L667,544 L667,545 L668,546 L668,547 L669,548 L669,549 L670,550 L670,551 L671,552 L671,553 L672,554 L672,555 L673,556 L673,557 L674,558 L674,559 L675,560 L675,561 L676,562 L676,563 L677,564 L677,565 L678,566 L678,567 L679,568 L679,569 L680,570 L680,571 L682,573 L682,574 L683,575 L683,576 L684,577 L684,578 L686,580 L686,581 L687,582 L687,583 L689,585 L689,586 L690,587 L690,588 L692,590 L692,591 L694,593 L694,594 L696,596 L696,597 L698,599 L698,600 L700,602 L700,603 L702,605 L702,606 L705,609 L705,610 L708,613 L708,614 L711,617 L711,618 L715,622 L715,623 L719,627 L719,628 L725,634 L725,635 L734,644 L734,645 L751,662 L752,662 L761,671 L762,671 L768,677 L769,677 L773,681 L774,681 L778,685 L779,685 L782,688 L783,688 L786,691 L787,691 L789,693 L790,693 L793,696 L794,696 L796,698 L797,698 L799,700 L800,700 L802,702 L803,702 L805,704 L806,704 L807,705 L808,705 L810,707 L811,707 L813,709 L814,709 L815,710 L816,710 L817,711 L818,711 L820,713 L821,713 L822,714 L823,714 L824,715 L825,715 L827,717 L828,717 L829,718 L830,718 L831,719 L832,719 L833,720 L834,720 L835,721 L836,721 L837,722 L838,722 L839,723 L840,723 L841,724 L842,724 L843,725 L844,725 L845,726 L846,726 L847,727 L848,727 L849,728 L850,728 L851,729 L852,729 L853,730 L855,730 L856,731 L857,731 L858,732 L859,732 L860,733 L861,733 L862,734 L864,734 L865,735 L866,735 L867,736 L869,736 L870,737 L871,737 L872,738 L874,738 L875,739 L877,739 L878,740 L879,740 L880,741 L882,741 L883,742 L885,742 L886,743 L888,743 L889,744 L891,744 L892,745 L894,745 L895,746 L897,746 L898,747 L900,747 L901,748 L904,748 L905,749 L907,749 L908,750 L911,750 L912,751 L915,751 L916,752 L919,752 L920,753 L923,753 L924,754 L927,754 L928,755 L932,755 L933,756 L937,756 L938,757 L942,757 L943,758 L948,758 L949,759 L954,759 L955,760 L961,760 L962,761 L969,761 L970,762 L979,762 L980,763 L995,763 L996,764 L1030,764 L1031,763 L1046,763 L1047,762 L1056,762 L1057,761 L1064,761 L1065,760 L1072,760 L1073,759 L1078,759 L1079,758 L1084,758 L1085,757 L1089,757 L1090,756 L1094,756 L1095,755 L1099,755 L1100,754 L1103,754 L1104,753 L1107,753 L1108,752 L1111,752 L1112,751 L1115,751 L1116,750 L1119,750 L1120,749 L1122,749 L1123,748 L1126,748 L1127,747 L1129,747 L1130,746 L1132,746 L1133,745 L1135,745 L1136,744 L1139,744 L1140,743 L1141,743 L1142,742 L1144,742 L1145,741 L1147,741 L1148,740 L1150,740 L1151,739 L1153,739 L1154,738 L1155,738 L1156,737 L1158,737 L1159,736 L1160,736 L1161,735 L1163,735 L1164,734 L1165,734 L1166,733 L1168,733 L1169,732 L1170,732 L1171,731 L1172,731 L1173,730 L1175,730 L1176,729 L1177,729 L1178,728 L1179,728 L1180,727 L1181,727 L1182,726 L1183,726 L1184,725 L1185,725 L1186,724 L1187,724 L1188,723 L1189,723 L1190,722 L1191,722 L1192,721 L1193,721 L1194,720 L1195,720 L1196,719 L1197,719 L1198,718 L1199,718 L1200,717 L1201,717 L1202,716 L1203,716 L1204,715 L1205,715 L1206,714 L1207,714 L1209,712 L1210,712 L1211,711 L1212,711 L1213,710 L1214,710 L1216,708 L1217,708 L1218,707 L1219,707 L1221,705 L1222,705 L1224,703 L1225,703 L1226,702 L1227,702 L1229,700 L1230,700 L1232,698 L1233,698 L1235,696 L1236,696 L1238,694 L1239,694 L1242,691 L1243,691 L1245,689 L1246,689 L1249,686 L1250,686 L1253,683 L1254,683 L1258,679 L1259,679 L1263,675 L1264,675 L1270,669 L1271,669 L1279,661 L1280,661 L1301,640 L1301,639 L1309,631 L1309,630 L1314,625 L1314,624 L1319,619 L1319,618 L1322,615 L1322,614 L1326,610 L1326,609 L1328,607 L1328,606 L1331,603 L1331,602 L1333,600 L1333,599 L1336,596 L1336,595 L1338,593 L1338,592 L1340,590 L1340,589 L1341,588 L1341,587 L1343,585 L1343,584 L1345,582 L1345,581 L1346,580 L1346,579 L1348,577 L1348,576 L1349,575 L1349,574 L1351,572 L1351,571 L1352,570 L1352,569 L1353,568 L1353,567 L1355,565 L1355,564 L1356,563 L1356,562 L1357,561 L1357,560 L1358,559 L1358,558 L1359,557 L1359,556 L1360,555 L1360,554 L1361,553 L1361,552 L1362,551 L1362,550 L1363,549 L1363,548 L1364,547 L1364,546 L1365,545 L1365,544 L1366,543 L1366,542 L1367,541 L1367,540 L1368,539 L1368,537 L1369,536 L1369,535 L1370,534 L1370,533 L1371,532 L1371,530 L1372,529 L1372,528 L1373,527 L1373,526 L1374,525 L1374,523 L1375,522 L1375,521 L1376,520 L1376,518 L1377,517 L1377,515 L1378,514 L1378,513 L1379,512 L1379,510 L1380,509 L1380,507 L1381,506 L1381,504 L1382,503 L1382,501 L1383,500 L1383,498 L1384,497 L1384,495 L1385,494 L1385,491 L1386,490 L1386,488 L1387,487 L1387,484 L1388,483 L1388,481 L1389,480 L1389,477 L1390,476 L1390,473 L1391,472 L1391,468 L1392,467 L1392,464 L1393,463 L1393,459 L1394,458 L1394,454 L1395,453 L1395,448 L1396,447 L1396,442 L1397,441 L1397,435 L1398,434 L1398,426 L1399,425 L1399,415 L1400,414 L1400,395 L1401,394 L1401,379 L1400,378 L1400,359 L1399,358 L1399,348 L1398,347 L1398,339 L1397,338 L1397,332 L1396,331 L1396,326 L1395,325 L1395,320 L1394,319 L1394,315 L1393,314 L1393,310 L1392,309 L1392,305 L1391,304 L1391,301 L1390,300 L1390,296 L1389,295 L1389,293 L1388,292 L1388,289 L1387,288 L1387,285 L1386,284 L1386,282 L1385,281 L1385,278 L1384,277 L1384,275 L1383,274 L1383,272 L1382,271 L1382,269 L1381,268 L1381,266 L1380,265 L1380,263 L1379,262 L1379,260 L1378,259 L1378,257 L1377,256 L1377,254 L1376,253 L1376,252 L1375,251 L1375,249 L1374,248 L1374,247 L1373,246 L1373,244 L1372,243 L1372,242 L1371,241 L1371,239 L1370,238 L1370,237 L1369,236 L1369,235 L1368,234 L1368,232 L1367,231 L1367,230 L1366,229 L1366,228 L1365,227 L1365,226 L1364,225 L1364,224 L1363,223 L1363,221 L1362,220 L1362,219 L1361,218 L1361,217 L1360,216 L1360,215 L1359,214 L1359,213 L1358,212 L1358,211 L1357,210 L1357,209 L1355,207 L1355,206 L1354,205 L1354,204 L1353,203 L1353,202 L1352,201 L1352,200 L1351,199 L1351,198 L1349,196 L1349,195 L1348,194 L1348,193 L1347,192 L1347,191 L1345,189 L1345,188 L1344,187 L1344,186 L1342,184 L1342,183 L1340,181 L1340,180 L1339,179 L1339,178 L1337,176 L1337,175 L1335,173 L1335,172 L1333,170 L1333,169 L1330,166 L1330,165 L1328,163 L1328,162 L1325,159 L1325,158 L1323,156 L1323,155 L1319,151 L1319,150 L1316,147 L1316,146 L1312,142 L1312,141 L1306,135 L1306,134 L1299,127 L1299,126 L1273,100 L1272,100 L1264,92 L1263,92 L1258,87 L1257,87 L1253,83 L1252,83 L1248,79 L1247,79 L1244,76 L1243,76 L1240,73 L1239,73 L1237,71 L1236,71 L1233,68 L1232,68 L1230,66 L1229,66 L1227,64 L1226,64 L1224,62 L1223,62 L1221,60 L1220,60 L1219,59 L1218,59 L1216,57 L1215,57 L1213,55 L1212,55 L1211,54 L1210,54 L1208,52 L1207,52 L1206,51 L1205,51 L1204,50 L1203,50 L1201,48 L1200,48 L1199,47 L1198,47 L1197,46 L1196,46 L1195,45 L1194,45 L1193,44 L1192,44 L1191,43 L1190,43 L1189,42 L1188,42 L1187,41 L1186,41 L1185,40 L1184,40 L1183,39 L1182,39 L1181,38 L1180,38 L1179,37 L1178,37 L1177,36 L1176,36 L1175,35 L1174,35 L1173,34 L1172,34 L1171,33 L1170,33 L1169,32 L1167,32 L1166,31 L1165,31 L1164,30 L1163,30 L1162,29 L1160,29 L1159,28 L1158,28 L1157,27 L1155,27 L1154,26 L1153,26 L1152,25 L1150,25 L1149,24 L1147,24 L1146,23 L1145,23 L1144,22 L1142,22 L1141,21 L1139,21 L1138,20 L1136,20 L1135,19 L1133,19 L1132,18 L1130,18 L1129,17 L1127,17 L1126,16 L1124,16 L1123,15 L1120,15 L1119,14 L1117,14 L1116,13 L1113,13 L1112,12 L1109,12 L1108,11 L1105,11 L1104,10 L1101,10 L1100,9 L1096,9 L1095,8 L1091,8 L1090,7 L1086,7 L1085,6 L1081,6 L1080,5 L1075,5 L1074,4 L1068,4 L1067,3 L1060,3 L1057,0 Z M1256,172 L1257,171 L1261,171 L1264,174 L1264,175 L1268,179 L1268,180 L1272,184 L1272,185 L1275,188 L1275,189 L1277,191 L1277,192 L1280,195 L1280,196 L1282,198 L1282,199 L1285,202 L1285,203 L1287,205 L1287,206 L1289,208 L1289,209 L1290,210 L1290,211 L1292,213 L1292,214 L1294,216 L1294,217 L1295,218 L1295,219 L1297,221 L1297,222 L1298,223 L1298,224 L1300,226 L1300,227 L1301,228 L1301,229 L1302,230 L1302,231 L1303,232 L1303,233 L1305,235 L1305,236 L1306,237 L1306,238 L1307,239 L1307,240 L1308,241 L1308,242 L1309,243 L1309,244 L1310,245 L1310,246 L1311,247 L1311,248 L1312,249 L1312,250 L1313,251 L1313,253 L1314,254 L1314,255 L1315,256 L1315,257 L1316,258 L1316,259 L1317,260 L1317,262 L1318,263 L1318,264 L1319,265 L1319,267 L1320,268 L1320,269 L1321,270 L1321,272 L1322,273 L1322,275 L1323,276 L1323,277 L1324,278 L1324,280 L1325,281 L1325,283 L1326,284 L1326,286 L1327,287 L1327,289 L1328,290 L1328,293 L1329,294 L1329,296 L1330,297 L1330,300 L1331,301 L1331,304 L1332,305 L1332,308 L1333,309 L1333,312 L1334,313 L1334,317 L1335,318 L1335,322 L1336,323 L1336,328 L1337,329 L1337,335 L1338,336 L1338,343 L1339,344 L1339,354 L1340,355 L1340,392 L1339,393 L1339,403 L1338,404 L1338,411 L1337,412 L1337,418 L1336,419 L1336,424 L1335,425 L1335,429 L1334,430 L1334,434 L1333,435 L1333,438 L1332,439 L1332,442 L1331,443 L1331,446 L1330,447 L1330,450 L1329,451 L1329,453 L1328,454 L1328,456 L1327,457 L1327,460 L1326,461 L1326,463 L1325,464 L1325,465 L1324,466 L1324,468 L1323,469 L1323,471 L1322,472 L1322,473 L1321,474 L1321,476 L1320,477 L1320,478 L1319,479 L1319,481 L1318,482 L1318,483 L1317,484 L1317,485 L1316,486 L1316,487 L1315,488 L1315,489 L1314,490 L1314,491 L1310,495 L1306,495 L1305,496 L1297,496 L1296,497 L1288,497 L1287,498 L1278,498 L1277,499 L1266,499 L1265,500 L1254,500 L1253,501 L1241,501 L1240,502 L1226,502 L1225,503 L1208,503 L1207,504 L1185,504 L1184,505 L1096,505 L1095,504 L1077,504 L1076,503 L1063,503 L1062,502 L1051,502 L1050,501 L1042,501 L1041,500 L1033,500 L1032,499 L1026,499 L1025,498 L1019,498 L1018,497 L1013,497 L1012,496 L1007,496 L1006,495 L1002,495 L1001,494 L997,494 L996,493 L992,493 L991,492 L987,492 L986,491 L983,491 L982,490 L979,490 L978,489 L976,489 L975,488 L972,488 L971,487 L969,487 L968,486 L965,486 L964,485 L962,485 L961,484 L959,484 L958,483 L956,483 L955,482 L954,482 L953,481 L951,481 L950,480 L949,480 L948,479 L946,479 L945,478 L944,478 L943,477 L942,477 L941,476 L940,476 L939,475 L938,475 L937,474 L936,474 L935,473 L934,473 L933,472 L932,472 L931,471 L930,471 L929,470 L928,470 L926,468 L925,468 L923,466 L922,466 L920,464 L919,464 L916,461 L915,461 L902,448 L902,447 L900,445 L900,444 L898,442 L898,441 L896,439 L896,438 L895,437 L895,435 L894,434 L894,433 L893,432 L893,430 L892,429 L892,427 L891,426 L891,422 L890,421 L890,400 L891,399 L891,394 L892,393 L892,390 L893,389 L893,386 L894,385 L894,383 L895,382 L895,380 L896,379 L896,378 L897,377 L897,375 L898,374 L898,373 L899,372 L899,371 L900,370 L900,369 L901,368 L901,367 L902,366 L902,365 L903,364 L903,363 L904,362 L904,361 L905,360 L905,359 L907,357 L907,356 L909,354 L909,353 L911,351 L911,350 L913,348 L913,347 L916,344 L916,343 L920,339 L920,338 L926,332 L926,331 L940,317 L941,317 L949,309 L950,309 L954,305 L955,305 L959,301 L960,301 L963,298 L964,298 L967,295 L968,295 L971,292 L972,292 L974,290 L975,290 L978,287 L979,287 L981,285 L982,285 L984,283 L985,283 L987,281 L988,281 L989,280 L990,280 L992,278 L993,278 L995,276 L996,276 L997,275 L998,275 L1000,273 L1001,273 L1003,271 L1004,271 L1005,270 L1006,270 L1007,269 L1008,269 L1010,267 L1011,267 L1012,266 L1013,266 L1014,265 L1015,265 L1017,263 L1018,263 L1019,262 L1020,262 L1021,261 L1022,261 L1023,260 L1024,260 L1026,258 L1027,258 L1028,257 L1029,257 L1030,256 L1031,256 L1032,255 L1033,255 L1034,254 L1035,254 L1036,253 L1037,253 L1038,252 L1039,252 L1040,251 L1041,251 L1042,250 L1043,250 L1044,249 L1045,249 L1046,248 L1047,248 L1048,247 L1049,247 L1050,246 L1051,246 L1052,245 L1053,245 L1054,244 L1055,244 L1056,243 L1057,243 L1058,242 L1059,242 L1060,241 L1061,241 L1062,240 L1063,240 L1064,239 L1066,239 L1067,238 L1068,238 L1069,237 L1070,237 L1071,236 L1072,236 L1073,235 L1074,235 L1075,234 L1077,234 L1078,233 L1079,233 L1080,232 L1081,232 L1082,231 L1083,231 L1084,230 L1086,230 L1087,229 L1088,229 L1089,228 L1090,228 L1091,227 L1093,227 L1094,226 L1095,226 L1096,225 L1098,225 L1099,224 L1100,224 L1101,223 L1102,223 L1103,222 L1105,222 L1106,221 L1107,221 L1108,220 L1110,220 L1111,219 L1112,219 L1113,218 L1115,218 L1116,217 L1117,217 L1118,216 L1120,216 L1121,215 L1123,215 L1124,214 L1125,214 L1126,213 L1128,213 L1129,212 L1130,212 L1131,211 L1133,211 L1134,210 L1136,210 L1137,209 L1138,209 L1139,208 L1141,208 L1142,207 L1144,207 L1145,206 L1147,206 L1148,205 L1149,205 L1150,204 L1152,204 L1153,203 L1155,203 L1156,202 L1158,202 L1159,201 L1161,201 L1162,200 L1164,200 L1165,199 L1167,199 L1168,198 L1170,198 L1171,197 L1173,197 L1174,196 L1175,196 L1176,195 L1178,195 L1179,194 L1182,194 L1183,193 L1185,193 L1186,192 L1188,192 L1189,191 L1191,191 L1192,190 L1194,190 L1195,189 L1197,189 L1198,188 L1200,188 L1201,187 L1204,187 L1205,186 L1207,186 L1208,185 L1210,185 L1211,184 L1213,184 L1214,183 L1217,183 L1218,182 L1220,182 L1221,181 L1224,181 L1225,180 L1227,180 L1228,179 L1231,179 L1232,178 L1234,178 L1235,177 L1238,177 L1239,176 L1241,176 L1242,175 L1245,175 L1246,174 L1249,174 L1250,173 L1252,173 L1253,172 Z M999,58 L1000,57 L1047,57 L1048,58 L1057,58 L1058,59 L1064,59 L1065,60 L1070,60 L1071,61 L1076,61 L1077,62 L1081,62 L1082,63 L1086,63 L1087,64 L1090,64 L1091,65 L1094,65 L1095,66 L1097,66 L1098,67 L1101,67 L1102,68 L1104,68 L1105,69 L1108,69 L1109,70 L1111,70 L1112,71 L1114,71 L1115,72 L1116,72 L1117,73 L1119,73 L1120,74 L1122,74 L1123,75 L1124,75 L1125,76 L1127,76 L1128,77 L1129,77 L1130,78 L1132,78 L1133,79 L1134,79 L1135,80 L1136,80 L1137,81 L1139,81 L1140,82 L1141,82 L1142,83 L1143,83 L1144,84 L1145,84 L1146,85 L1147,85 L1150,88 L1146,92 L1144,92 L1143,93 L1142,93 L1141,94 L1140,94 L1139,95 L1137,95 L1136,96 L1135,96 L1134,97 L1133,97 L1132,98 L1131,98 L1130,99 L1128,99 L1127,100 L1126,100 L1125,101 L1124,101 L1123,102 L1122,102 L1121,103 L1120,103 L1119,104 L1117,104 L1116,105 L1115,105 L1114,106 L1113,106 L1112,107 L1111,107 L1110,108 L1109,108 L1108,109 L1107,109 L1106,110 L1105,110 L1104,111 L1103,111 L1102,112 L1101,112 L1100,113 L1099,113 L1098,114 L1097,114 L1096,115 L1095,115 L1094,116 L1093,116 L1092,117 L1091,117 L1090,118 L1089,118 L1088,119 L1087,119 L1086,120 L1085,120 L1084,121 L1083,121 L1082,122 L1081,122 L1080,123 L1079,123 L1078,124 L1077,124 L1076,125 L1075,125 L1074,126 L1073,126 L1072,127 L1071,127 L1070,128 L1069,128 L1067,130 L1066,130 L1065,131 L1064,131 L1063,132 L1062,132 L1061,133 L1060,133 L1059,134 L1058,134 L1056,136 L1055,136 L1054,137 L1053,137 L1052,138 L1051,138 L1050,139 L1049,139 L1047,141 L1046,141 L1045,142 L1044,142 L1043,143 L1042,143 L1040,145 L1039,145 L1038,146 L1037,146 L1036,147 L1035,147 L1033,149 L1032,149 L1031,150 L1030,150 L1028,152 L1027,152 L1026,153 L1025,153 L1023,155 L1022,155 L1021,156 L1020,156 L1018,158 L1017,158 L1015,160 L1014,160 L1013,161 L1012,161 L1010,163 L1009,163 L1007,165 L1006,165 L1005,166 L1004,166 L1002,168 L1001,168 L999,170 L998,170 L996,172 L995,172 L993,174 L992,174 L990,176 L989,176 L987,178 L986,178 L984,180 L983,180 L980,183 L979,183 L977,185 L976,185 L974,187 L973,187 L970,190 L969,190 L966,193 L965,193 L962,196 L961,196 L958,199 L957,199 L954,202 L953,202 L949,206 L948,206 L944,210 L943,210 L939,214 L938,214 L933,219 L932,219 L925,226 L924,226 L913,237 L912,237 L895,254 L895,255 L885,265 L885,266 L880,271 L880,272 L875,277 L875,278 L872,281 L872,282 L869,285 L869,286 L866,289 L866,290 L864,292 L864,293 L861,296 L861,297 L859,299 L859,300 L858,301 L858,302 L856,304 L856,305 L854,307 L854,308 L853,309 L853,310 L852,311 L852,312 L850,314 L850,315 L849,316 L849,317 L848,318 L848,319 L847,320 L847,321 L846,322 L846,323 L845,324 L845,325 L844,326 L844,327 L843,328 L843,329 L842,330 L842,331 L841,332 L841,333 L840,334 L840,336 L839,337 L839,338 L838,339 L838,341 L837,342 L837,343 L836,344 L836,346 L835,347 L835,349 L834,350 L834,352 L833,353 L833,355 L832,356 L832,359 L831,360 L831,363 L830,364 L830,367 L829,368 L829,372 L828,373 L828,377 L827,378 L827,385 L826,386 L826,419 L827,420 L827,426 L828,427 L828,431 L829,432 L829,435 L830,436 L830,438 L831,439 L831,441 L832,442 L832,444 L833,445 L833,447 L834,448 L834,450 L835,451 L835,452 L836,453 L836,454 L837,455 L837,456 L838,457 L838,458 L839,459 L839,460 L840,461 L840,462 L841,463 L841,464 L842,465 L842,466 L844,468 L844,469 L846,471 L846,472 L848,474 L848,475 L851,478 L851,479 L854,482 L854,483 L863,492 L863,493 L866,496 L867,496 L876,505 L877,505 L881,509 L882,509 L886,513 L887,513 L889,515 L890,515 L893,518 L894,518 L896,520 L897,520 L899,522 L900,522 L901,523 L902,523 L904,525 L905,525 L907,527 L908,527 L909,528 L910,528 L911,529 L912,529 L914,531 L915,531 L916,532 L917,532 L918,533 L919,533 L920,534 L921,534 L922,535 L923,535 L924,536 L925,536 L926,537 L927,537 L928,538 L929,538 L930,539 L931,539 L932,540 L933,540 L934,541 L935,541 L936,542 L937,542 L938,543 L939,543 L940,544 L941,544 L942,545 L944,545 L945,546 L946,546 L947,547 L948,547 L949,548 L951,548 L952,549 L953,549 L954,550 L956,550 L957,551 L958,551 L959,552 L961,552 L962,553 L963,553 L964,554 L966,554 L967,555 L969,555 L970,556 L971,556 L972,557 L974,557 L975,558 L977,558 L978,559 L980,559 L981,560 L983,560 L984,561 L986,561 L987,562 L989,562 L990,563 L992,563 L993,564 L995,564 L996,565 L998,565 L999,566 L1002,566 L1003,567 L1005,567 L1006,568 L1008,568 L1009,569 L1012,569 L1013,570 L1016,570 L1017,571 L1019,571 L1020,572 L1023,572 L1024,573 L1027,573 L1028,574 L1031,574 L1032,575 L1035,575 L1036,576 L1039,576 L1040,577 L1043,577 L1044,578 L1047,578 L1048,579 L1052,579 L1053,580 L1057,580 L1058,581 L1061,581 L1062,582 L1066,582 L1067,583 L1071,583 L1072,584 L1076,584 L1077,585 L1081,585 L1082,586 L1087,586 L1088,587 L1093,587 L1094,588 L1098,588 L1099,589 L1105,589 L1106,590 L1111,590 L1112,591 L1118,591 L1119,592 L1124,592 L1125,593 L1132,593 L1133,594 L1139,594 L1140,595 L1147,595 L1148,596 L1156,596 L1157,597 L1165,597 L1166,598 L1175,598 L1176,599 L1186,599 L1187,600 L1198,600 L1199,601 L1213,601 L1214,602 L1231,602 L1232,603 L1236,603 L1239,606 L1235,610 L1234,610 L1232,612 L1231,612 L1229,614 L1228,614 L1224,618 L1223,618 L1220,621 L1219,621 L1214,626 L1213,626 L1209,630 L1208,630 L1205,633 L1204,633 L1201,636 L1200,636 L1199,637 L1198,637 L1196,639 L1195,639 L1194,640 L1193,640 L1192,641 L1191,641 L1189,643 L1188,643 L1187,644 L1186,644 L1185,645 L1184,645 L1183,646 L1182,646 L1181,647 L1180,647 L1179,648 L1178,648 L1177,649 L1176,649 L1175,650 L1174,650 L1173,651 L1172,651 L1171,652 L1170,652 L1169,653 L1168,653 L1167,654 L1166,654 L1165,655 L1163,655 L1162,656 L1161,656 L1160,657 L1159,657 L1158,658 L1157,658 L1156,659 L1154,659 L1153,660 L1152,660 L1151,661 L1149,661 L1148,662 L1147,662 L1146,663 L1144,663 L1143,664 L1142,664 L1141,665 L1139,665 L1138,666 L1136,666 L1135,667 L1133,667 L1132,668 L1130,668 L1129,669 L1127,669 L1126,670 L1124,670 L1123,671 L1121,671 L1120,672 L1118,672 L1117,673 L1115,673 L1114,674 L1111,674 L1110,675 L1108,675 L1107,676 L1104,676 L1103,677 L1100,677 L1099,678 L1096,678 L1095,679 L1092,679 L1091,680 L1087,680 L1086,681 L1082,681 L1081,682 L1077,682 L1076,683 L1071,683 L1070,684 L1065,684 L1064,685 L1058,685 L1057,686 L1050,686 L1049,687 L1041,687 L1040,688 L1026,688 L1025,689 L990,689 L989,688 L976,688 L975,687 L966,687 L965,686 L958,686 L957,685 L952,685 L951,684 L946,684 L945,683 L940,683 L939,682 L936,682 L935,681 L931,681 L930,680 L927,680 L926,679 L923,679 L922,678 L919,678 L918,677 L915,677 L914,676 L912,676 L911,675 L908,675 L907,674 L905,674 L904,673 L902,673 L901,672 L899,672 L898,671 L896,671 L895,670 L893,670 L892,669 L890,669 L889,668 L888,668 L887,667 L885,667 L884,666 L883,666 L882,665 L880,665 L879,664 L878,664 L877,663 L875,663 L874,662 L873,662 L872,661 L871,661 L870,660 L869,660 L868,659 L866,659 L865,658 L864,658 L863,657 L862,657 L861,656 L860,656 L859,655 L858,655 L857,654 L856,654 L855,653 L854,653 L853,652 L852,652 L850,650 L849,650 L848,649 L847,649 L846,648 L845,648 L844,647 L843,647 L841,645 L840,645 L839,644 L838,644 L836,642 L835,642 L833,640 L832,640 L831,639 L830,639 L828,637 L827,637 L825,635 L824,635 L821,632 L820,632 L818,630 L817,630 L814,627 L813,627 L810,624 L809,624 L805,620 L804,620 L798,614 L797,614 L771,588 L771,587 L766,582 L766,581 L762,577 L762,576 L758,572 L758,571 L756,569 L756,568 L753,565 L753,564 L751,562 L751,561 L749,559 L749,558 L747,556 L747,555 L745,553 L745,552 L743,550 L743,549 L742,548 L742,547 L740,545 L740,544 L739,543 L739,542 L737,540 L737,539 L736,538 L736,537 L735,536 L735,535 L734,534 L734,533 L733,532 L733,531 L732,530 L732,529 L731,528 L731,527 L730,526 L730,525 L729,524 L729,523 L728,522 L728,521 L727,520 L727,519 L726,518 L726,517 L725,516 L725,515 L724,514 L724,512 L723,511 L723,510 L722,509 L722,508 L721,507 L721,505 L720,504 L720,503 L719,502 L719,500 L718,499 L718,497 L717,496 L717,495 L716,494 L716,492 L715,491 L715,489 L714,488 L714,486 L713,485 L713,483 L712,482 L712,479 L711,478 L711,476 L710,475 L710,472 L709,471 L709,469 L708,468 L708,465 L707,464 L707,460 L706,459 L706,456 L705,455 L705,451 L704,450 L704,446 L703,445 L703,440 L702,439 L702,434 L701,433 L701,427 L700,426 L700,417 L699,416 L699,403 L698,402 L698,370 L699,369 L699,356 L700,355 L700,347 L701,346 L701,339 L702,338 L702,333 L703,332 L703,327 L704,326 L704,322 L705,321 L705,317 L706,316 L706,313 L707,312 L707,308 L708,307 L708,304 L709,303 L709,301 L710,300 L710,297 L711,296 L711,293 L712,292 L712,290 L713,289 L713,287 L714,286 L714,284 L715,283 L715,281 L716,280 L716,278 L717,277 L717,275 L718,274 L718,272 L719,271 L719,270 L720,269 L720,267 L721,266 L721,264 L722,263 L722,262 L723,261 L723,260 L724,259 L724,257 L725,256 L725,255 L726,254 L726,253 L727,252 L727,250 L728,249 L728,248 L729,247 L729,246 L730,245 L730,244 L731,243 L731,242 L732,241 L732,240 L733,239 L733,238 L734,237 L734,236 L735,235 L735,234 L736,233 L736,232 L737,231 L737,230 L739,228 L739,227 L740,226 L740,225 L741,224 L741,223 L743,221 L743,220 L744,219 L744,218 L746,216 L746,215 L747,214 L747,213 L749,211 L749,210 L751,208 L751,207 L753,205 L753,204 L755,202 L755,201 L757,199 L757,198 L760,195 L760,194 L762,192 L762,191 L766,187 L766,186 L769,183 L769,182 L774,177 L774,176 L780,170 L780,169 L808,141 L809,141 L815,135 L816,135 L821,130 L822,130 L825,127 L826,127 L830,123 L831,123 L833,121 L834,121 L837,118 L838,118 L840,116 L841,116 L844,113 L845,113 L847,111 L848,111 L849,110 L850,110 L852,108 L853,108 L855,106 L856,106 L858,104 L859,104 L860,103 L861,103 L863,101 L864,101 L865,100 L866,100 L867,99 L868,99 L870,97 L871,97 L872,96 L873,96 L874,95 L875,95 L876,94 L877,94 L878,93 L879,93 L880,92 L881,92 L882,91 L883,91 L884,90 L885,90 L886,89 L887,89 L888,88 L889,88 L890,87 L891,87 L892,86 L893,86 L894,85 L895,85 L896,84 L898,84 L899,83 L900,83 L901,82 L902,82 L903,81 L905,81 L906,80 L907,80 L908,79 L910,79 L911,78 L912,78 L913,77 L915,77 L916,76 L918,76 L919,75 L920,75 L921,74 L923,74 L924,73 L926,73 L927,72 L929,72 L930,71 L932,71 L933,70 L936,70 L937,69 L939,69 L940,68 L943,68 L944,67 L946,67 L947,66 L950,66 L951,65 L955,65 L956,64 L959,64 L960,63 L964,63 L965,62 L969,62 L970,61 L975,61 L976,60 L981,60 L982,59 L989,59 L990,58 Z"/></g>
    <g fill="#ff440b"><path d="M1610,839 L1609,840 L1609,1029 L1610,1030 L1648,1030 L1649,1029 L1649,840 L1648,839 Z M1760,835 L1759,836 L1746,836 L1745,837 L1740,837 L1739,838 L1736,838 L1735,839 L1732,839 L1731,840 L1729,840 L1728,841 L1726,841 L1725,842 L1723,842 L1722,843 L1721,843 L1720,844 L1718,844 L1717,845 L1716,845 L1715,846 L1714,846 L1712,848 L1711,848 L1710,849 L1709,849 L1707,851 L1706,851 L1704,853 L1703,853 L1698,858 L1697,858 L1691,864 L1691,865 L1687,869 L1687,870 L1684,873 L1684,874 L1682,876 L1682,877 L1681,878 L1681,879 L1679,881 L1679,882 L1678,883 L1678,884 L1677,885 L1677,886 L1676,887 L1676,889 L1675,890 L1675,891 L1674,892 L1674,894 L1673,895 L1673,897 L1672,898 L1672,900 L1671,901 L1671,903 L1670,904 L1670,908 L1669,909 L1669,913 L1668,914 L1668,920 L1667,921 L1667,947 L1668,948 L1668,954 L1669,955 L1669,960 L1670,961 L1670,964 L1671,965 L1671,967 L1672,968 L1672,971 L1673,972 L1673,973 L1674,974 L1674,976 L1675,977 L1675,979 L1676,980 L1676,981 L1677,982 L1677,983 L1678,984 L1678,985 L1679,986 L1679,987 L1680,988 L1680,989 L1682,991 L1682,992 L1684,994 L1684,995 L1686,997 L1686,998 L1690,1002 L1690,1003 L1699,1012 L1700,1012 L1704,1016 L1705,1016 L1707,1018 L1708,1018 L1710,1020 L1711,1020 L1712,1021 L1713,1021 L1714,1022 L1715,1022 L1716,1023 L1717,1023 L1718,1024 L1719,1024 L1720,1025 L1721,1025 L1722,1026 L1724,1026 L1725,1027 L1726,1027 L1727,1028 L1729,1028 L1730,1029 L1733,1029 L1734,1030 L1737,1030 L1738,1031 L1742,1031 L1743,1032 L1749,1032 L1750,1033 L1771,1033 L1772,1032 L1779,1032 L1780,1031 L1784,1031 L1785,1030 L1788,1030 L1789,1029 L1792,1029 L1793,1028 L1795,1028 L1796,1027 L1798,1027 L1799,1026 L1800,1026 L1801,1025 L1802,1025 L1803,1024 L1805,1024 L1806,1023 L1807,1023 L1809,1021 L1810,1021 L1811,1020 L1812,1020 L1814,1018 L1815,1018 L1817,1016 L1818,1016 L1823,1011 L1824,1011 L1830,1005 L1830,1004 L1834,1000 L1834,999 L1837,996 L1837,995 L1839,993 L1839,992 L1840,991 L1840,990 L1841,989 L1841,988 L1842,987 L1842,986 L1843,985 L1843,984 L1844,983 L1844,982 L1845,981 L1845,979 L1846,978 L1846,977 L1847,976 L1847,974 L1848,973 L1848,971 L1847,970 L1807,970 L1805,972 L1805,974 L1804,975 L1804,976 L1803,977 L1803,978 L1801,980 L1801,981 L1798,984 L1798,985 L1793,990 L1792,990 L1789,993 L1788,993 L1787,994 L1786,994 L1785,995 L1784,995 L1783,996 L1782,996 L1781,997 L1780,997 L1779,998 L1776,998 L1775,999 L1771,999 L1770,1000 L1752,1000 L1751,999 L1747,999 L1746,998 L1743,998 L1742,997 L1741,997 L1740,996 L1739,996 L1738,995 L1737,995 L1736,994 L1735,994 L1734,993 L1733,993 L1731,991 L1730,991 L1720,981 L1720,980 L1718,978 L1718,977 L1716,975 L1716,974 L1715,973 L1715,972 L1714,971 L1714,970 L1713,969 L1713,968 L1712,967 L1712,965 L1711,964 L1711,962 L1710,961 L1710,958 L1709,957 L1709,953 L1708,952 L1708,945 L1707,944 L1707,924 L1708,923 L1708,916 L1709,915 L1709,911 L1710,910 L1710,907 L1711,906 L1711,904 L1712,903 L1712,902 L1713,901 L1713,899 L1714,898 L1714,897 L1715,896 L1715,895 L1716,894 L1716,893 L1718,891 L1718,890 L1721,887 L1721,886 L1728,879 L1729,879 L1732,876 L1733,876 L1734,875 L1735,875 L1737,873 L1739,873 L1740,872 L1741,872 L1742,871 L1744,871 L1745,870 L1748,870 L1749,869 L1756,869 L1757,868 L1764,868 L1765,869 L1772,869 L1773,870 L1777,870 L1778,871 L1780,871 L1781,872 L1782,872 L1783,873 L1784,873 L1785,874 L1786,874 L1787,875 L1788,875 L1791,878 L1792,878 L1799,885 L1799,886 L1802,889 L1802,890 L1803,891 L1803,892 L1804,893 L1804,894 L1805,895 L1805,896 L1806,897 L1806,898 L1807,899 L1847,899 L1848,898 L1848,895 L1847,894 L1847,892 L1846,891 L1846,889 L1845,888 L1845,887 L1844,886 L1844,884 L1843,883 L1843,882 L1842,881 L1842,880 L1841,879 L1841,878 L1840,877 L1840,876 L1838,874 L1838,873 L1836,871 L1836,870 L1834,868 L1834,867 L1820,853 L1819,853 L1817,851 L1816,851 L1814,849 L1813,849 L1811,847 L1810,847 L1809,846 L1808,846 L1807,845 L1806,845 L1805,844 L1804,844 L1803,843 L1801,843 L1800,842 L1798,842 L1797,841 L1795,841 L1794,840 L1792,840 L1791,839 L1788,839 L1787,838 L1784,838 L1783,837 L1777,837 L1776,836 L1762,836 L1761,835 Z M1431,835 L1430,836 L1417,836 L1416,837 L1411,837 L1410,838 L1407,838 L1406,839 L1403,839 L1402,840 L1400,840 L1399,841 L1397,841 L1396,842 L1394,842 L1393,843 L1392,843 L1391,844 L1390,844 L1389,845 L1388,845 L1387,846 L1386,846 L1385,847 L1384,847 L1383,848 L1382,848 L1381,849 L1380,849 L1378,851 L1377,851 L1374,854 L1373,854 L1367,860 L1366,860 L1364,862 L1364,863 L1358,869 L1358,870 L1355,873 L1355,874 L1354,875 L1354,876 L1352,878 L1352,879 L1351,880 L1351,881 L1349,883 L1349,884 L1348,885 L1348,887 L1347,888 L1347,889 L1346,890 L1346,891 L1345,892 L1345,894 L1344,895 L1344,897 L1343,898 L1343,900 L1342,901 L1342,904 L1341,905 L1341,908 L1340,909 L1340,914 L1339,915 L1339,922 L1338,923 L1338,945 L1339,946 L1339,953 L1340,954 L1340,959 L1341,960 L1341,963 L1342,964 L1342,967 L1343,968 L1343,970 L1344,971 L1344,973 L1345,974 L1345,976 L1346,977 L1346,978 L1347,979 L1347,981 L1348,982 L1348,983 L1349,984 L1349,985 L1350,986 L1350,987 L1352,989 L1352,990 L1353,991 L1353,992 L1355,994 L1355,995 L1358,998 L1358,999 L1362,1003 L1362,1004 L1369,1011 L1370,1011 L1374,1015 L1375,1015 L1378,1018 L1379,1018 L1380,1019 L1381,1019 L1383,1021 L1384,1021 L1385,1022 L1386,1022 L1387,1023 L1388,1023 L1389,1024 L1390,1024 L1391,1025 L1392,1025 L1393,1026 L1395,1026 L1396,1027 L1397,1027 L1398,1028 L1401,1028 L1402,1029 L1404,1029 L1405,1030 L1408,1030 L1409,1031 L1413,1031 L1414,1032 L1421,1032 L1422,1033 L1442,1033 L1443,1032 L1450,1032 L1451,1031 L1455,1031 L1456,1030 L1459,1030 L1460,1029 L1463,1029 L1464,1028 L1466,1028 L1467,1027 L1469,1027 L1470,1026 L1471,1026 L1472,1025 L1474,1025 L1475,1024 L1476,1024 L1477,1023 L1478,1023 L1479,1022 L1480,1022 L1482,1020 L1483,1020 L1485,1018 L1486,1018 L1488,1016 L1489,1016 L1493,1012 L1494,1012 L1502,1004 L1502,1003 L1506,999 L1506,998 L1508,996 L1508,995 L1510,993 L1510,992 L1511,991 L1511,990 L1513,988 L1513,987 L1514,986 L1514,984 L1515,983 L1515,982 L1516,981 L1516,980 L1517,979 L1517,977 L1518,976 L1518,974 L1519,973 L1519,971 L1518,970 L1478,970 L1477,971 L1477,972 L1476,973 L1476,974 L1475,975 L1475,976 L1474,977 L1474,978 L1472,980 L1472,981 L1470,983 L1470,984 L1463,991 L1462,991 L1460,993 L1459,993 L1457,995 L1456,995 L1455,996 L1453,996 L1452,997 L1451,997 L1450,998 L1447,998 L1446,999 L1442,999 L1441,1000 L1423,1000 L1422,999 L1418,999 L1417,998 L1415,998 L1414,997 L1412,997 L1411,996 L1410,996 L1409,995 L1408,995 L1407,994 L1406,994 L1405,993 L1404,993 L1402,991 L1401,991 L1391,981 L1391,980 L1389,978 L1389,977 L1387,975 L1387,974 L1386,973 L1386,972 L1385,971 L1385,970 L1384,969 L1384,967 L1383,966 L1383,965 L1382,964 L1382,961 L1381,960 L1381,957 L1380,956 L1380,952 L1379,951 L1379,943 L1378,942 L1378,926 L1379,925 L1379,917 L1380,916 L1380,912 L1381,911 L1381,908 L1382,907 L1382,905 L1383,904 L1383,902 L1384,901 L1384,900 L1385,899 L1385,897 L1387,895 L1387,894 L1388,893 L1388,892 L1390,890 L1390,889 L1393,886 L1393,885 L1399,879 L1400,879 L1403,876 L1404,876 L1405,875 L1406,875 L1407,874 L1408,874 L1409,873 L1410,873 L1411,872 L1412,872 L1413,871 L1415,871 L1416,870 L1419,870 L1420,869 L1427,869 L1428,868 L1435,868 L1436,869 L1444,869 L1445,870 L1448,870 L1449,871 L1451,871 L1452,872 L1453,872 L1454,873 L1455,873 L1456,874 L1457,874 L1458,875 L1459,875 L1461,877 L1462,877 L1471,886 L1471,887 L1473,889 L1473,890 L1474,891 L1474,892 L1475,893 L1475,894 L1476,895 L1476,896 L1477,897 L1477,898 L1478,899 L1519,899 L1520,898 L1519,897 L1519,895 L1518,894 L1518,892 L1517,891 L1517,889 L1516,888 L1516,886 L1515,885 L1515,884 L1514,883 L1514,882 L1513,881 L1513,880 L1512,879 L1512,878 L1511,877 L1511,876 L1510,875 L1510,874 L1508,872 L1508,871 L1505,868 L1505,867 L1501,863 L1501,862 L1496,857 L1495,857 L1491,853 L1490,853 L1487,850 L1486,850 L1485,849 L1484,849 L1482,847 L1481,847 L1480,846 L1479,846 L1478,845 L1477,845 L1476,844 L1475,844 L1474,843 L1472,843 L1471,842 L1470,842 L1469,841 L1467,841 L1466,840 L1463,840 L1462,839 L1459,839 L1458,838 L1455,838 L1454,837 L1448,837 L1447,836 L1433,836 L1432,835 Z M1112,833 L1111,834 L1107,834 L1106,835 L1103,835 L1102,836 L1100,836 L1099,837 L1097,837 L1096,838 L1095,838 L1094,839 L1093,839 L1092,840 L1091,840 L1090,841 L1089,841 L1088,842 L1087,842 L1086,843 L1085,843 L1083,845 L1082,845 L1080,847 L1079,847 L1075,851 L1074,851 L1063,862 L1063,863 L1059,867 L1057,865 L1057,835 L1056,834 L981,834 L980,835 L980,1029 L981,1030 L1056,1030 L1057,1029 L1057,940 L1058,939 L1058,936 L1059,935 L1059,933 L1060,932 L1060,931 L1061,930 L1061,929 L1063,927 L1063,926 L1067,922 L1068,922 L1069,921 L1070,921 L1072,919 L1074,919 L1075,918 L1076,918 L1077,917 L1080,917 L1081,916 L1086,916 L1087,915 L1118,915 L1120,917 L1120,961 L1121,962 L1121,969 L1122,970 L1122,974 L1123,975 L1123,978 L1124,979 L1124,981 L1125,982 L1125,984 L1126,985 L1126,987 L1127,988 L1127,990 L1128,991 L1128,992 L1129,993 L1129,994 L1130,995 L1130,996 L1131,997 L1131,998 L1132,999 L1132,1000 L1134,1002 L1134,1003 L1136,1005 L1136,1006 L1149,1019 L1150,1019 L1152,1021 L1153,1021 L1155,1023 L1156,1023 L1157,1024 L1158,1024 L1159,1025 L1160,1025 L1161,1026 L1163,1026 L1164,1027 L1166,1027 L1167,1028 L1169,1028 L1170,1029 L1173,1029 L1174,1030 L1179,1030 L1180,1031 L1202,1031 L1203,1030 L1208,1030 L1209,1029 L1212,1029 L1213,1028 L1215,1028 L1216,1027 L1218,1027 L1219,1026 L1221,1026 L1222,1025 L1223,1025 L1224,1024 L1225,1024 L1226,1023 L1227,1023 L1228,1022 L1229,1022 L1231,1020 L1232,1020 L1235,1017 L1236,1017 L1250,1003 L1252,1005 L1252,1029 L1253,1030 L1327,1030 L1328,1029 L1328,835 L1327,834 L1253,834 L1252,835 L1252,942 L1251,943 L1251,948 L1250,949 L1250,951 L1249,952 L1249,953 L1248,954 L1248,955 L1247,956 L1247,957 L1239,965 L1238,965 L1237,966 L1236,966 L1235,967 L1233,967 L1232,968 L1216,968 L1215,967 L1213,967 L1212,966 L1211,966 L1210,965 L1209,965 L1201,957 L1201,956 L1200,955 L1200,954 L1199,953 L1199,952 L1198,951 L1198,949 L1197,948 L1197,944 L1196,943 L1196,835 L1195,834 L1122,834 L1121,833 Z M863,787 L862,788 L862,832 L860,834 L838,834 L837,835 L837,878 L835,880 L833,878 L833,877 L832,876 L832,875 L831,874 L831,873 L830,872 L830,871 L828,869 L828,868 L826,866 L826,865 L823,862 L823,861 L811,849 L810,849 L807,846 L806,846 L804,844 L803,844 L802,843 L801,843 L800,842 L799,842 L798,841 L797,841 L796,840 L795,840 L794,839 L792,839 L791,838 L790,838 L789,837 L786,837 L785,836 L783,836 L782,835 L779,835 L778,834 L774,834 L773,833 L767,833 L766,832 L736,832 L735,833 L729,833 L728,834 L724,834 L723,835 L719,835 L718,836 L716,836 L715,837 L713,837 L712,838 L710,838 L709,839 L708,839 L707,840 L705,840 L704,841 L703,841 L702,842 L701,842 L700,843 L699,843 L697,845 L696,845 L694,847 L693,847 L691,849 L690,849 L680,859 L680,860 L677,863 L677,864 L676,865 L676,866 L675,867 L675,868 L674,869 L674,870 L673,871 L673,872 L672,873 L672,874 L671,875 L671,877 L670,878 L670,881 L669,882 L669,886 L668,887 L668,906 L669,907 L669,911 L670,912 L670,915 L671,916 L671,917 L672,918 L672,920 L673,921 L673,922 L674,923 L674,924 L676,926 L676,927 L686,937 L687,937 L689,939 L690,939 L692,941 L693,941 L694,942 L695,942 L696,943 L697,943 L698,944 L699,944 L700,945 L702,945 L703,946 L705,946 L706,947 L708,947 L709,948 L712,948 L713,949 L715,949 L716,950 L719,950 L720,951 L723,951 L724,952 L728,952 L729,953 L732,953 L733,954 L737,954 L738,955 L742,955 L743,956 L747,956 L748,957 L751,957 L752,958 L755,958 L756,959 L758,959 L759,960 L761,960 L762,961 L763,961 L769,967 L769,973 L764,978 L763,978 L762,979 L759,979 L758,980 L754,980 L753,979 L747,979 L746,978 L745,978 L744,977 L743,977 L742,976 L741,976 L735,970 L735,969 L734,968 L734,967 L733,966 L733,964 L732,963 L660,963 L658,965 L656,963 L656,901 L655,900 L655,894 L654,893 L654,889 L653,888 L653,885 L652,884 L652,882 L651,881 L651,879 L650,878 L650,876 L649,875 L649,874 L648,873 L648,871 L647,870 L647,869 L646,868 L646,867 L644,865 L644,864 L643,863 L643,862 L641,860 L641,859 L637,855 L637,854 L631,848 L630,848 L626,844 L625,844 L623,842 L622,842 L621,841 L620,841 L619,840 L618,840 L617,839 L616,839 L615,838 L613,838 L612,837 L610,837 L609,836 L607,836 L606,835 L603,835 L602,834 L597,834 L596,833 L574,833 L573,834 L568,834 L567,835 L564,835 L563,836 L561,836 L560,837 L558,837 L557,838 L555,838 L554,839 L553,839 L552,840 L551,840 L550,841 L549,841 L547,843 L546,843 L544,845 L543,845 L541,847 L540,847 L527,860 L525,858 L525,835 L524,834 L449,834 L448,835 L448,1029 L449,1030 L524,1030 L525,1029 L525,917 L526,916 L526,914 L527,913 L527,911 L528,910 L528,909 L530,907 L530,906 L536,900 L537,900 L539,898 L540,898 L541,897 L543,897 L544,896 L560,896 L561,897 L563,897 L564,898 L565,898 L566,899 L567,899 L570,902 L571,902 L573,904 L573,905 L576,908 L576,909 L577,910 L577,911 L578,912 L578,914 L579,915 L579,918 L580,919 L580,1029 L581,1030 L655,1030 L656,1029 L656,967 L658,965 L660,967 L660,971 L661,972 L661,975 L662,976 L662,978 L663,979 L663,981 L664,982 L664,983 L665,984 L665,985 L666,986 L666,987 L667,988 L667,989 L668,990 L668,991 L669,992 L669,993 L671,995 L671,996 L675,1000 L675,1001 L683,1009 L684,1009 L688,1013 L689,1013 L691,1015 L692,1015 L694,1017 L695,1017 L696,1018 L697,1018 L698,1019 L699,1019 L701,1021 L703,1021 L704,1022 L705,1022 L706,1023 L707,1023 L708,1024 L710,1024 L711,1025 L712,1025 L713,1026 L715,1026 L716,1027 L719,1027 L720,1028 L723,1028 L724,1029 L727,1029 L728,1030 L732,1030 L733,1031 L740,1031 L741,1032 L771,1032 L772,1031 L778,1031 L779,1030 L783,1030 L784,1029 L788,1029 L789,1028 L791,1028 L792,1027 L794,1027 L795,1026 L797,1026 L798,1025 L800,1025 L801,1024 L802,1024 L803,1023 L804,1023 L805,1022 L806,1022 L807,1021 L808,1021 L809,1020 L810,1020 L812,1018 L813,1018 L814,1017 L815,1017 L818,1014 L819,1014 L828,1005 L828,1004 L831,1001 L831,1000 L832,999 L832,998 L834,996 L834,995 L835,994 L835,992 L836,991 L836,990 L837,989 L837,986 L838,985 L838,982 L839,981 L839,959 L838,958 L838,955 L837,954 L837,951 L836,950 L836,948 L835,947 L835,946 L834,945 L834,944 L833,943 L833,942 L831,940 L831,939 L828,936 L828,935 L823,930 L822,930 L818,926 L817,926 L815,924 L814,924 L812,922 L811,922 L810,921 L809,921 L808,920 L806,920 L805,919 L803,919 L802,918 L800,918 L799,917 L797,917 L796,916 L794,916 L793,915 L790,915 L789,914 L787,914 L786,913 L783,913 L782,912 L778,912 L777,911 L774,911 L773,910 L769,910 L768,909 L764,909 L763,908 L760,908 L759,907 L755,907 L754,906 L752,906 L751,905 L748,905 L747,904 L746,904 L745,903 L743,903 L741,901 L740,901 L738,899 L738,898 L737,897 L737,891 L738,890 L738,889 L740,887 L741,887 L742,886 L743,886 L744,885 L756,885 L757,886 L759,886 L760,887 L761,887 L762,888 L763,888 L769,894 L769,895 L770,896 L770,897 L771,898 L771,900 L772,901 L839,901 L842,898 L860,898 L862,900 L862,965 L863,966 L863,972 L864,973 L864,977 L865,978 L865,981 L866,982 L866,984 L867,985 L867,987 L868,988 L868,989 L869,990 L869,992 L870,993 L870,994 L871,995 L871,996 L872,997 L872,998 L874,1000 L874,1001 L876,1003 L876,1004 L887,1015 L888,1015 L890,1017 L891,1017 L893,1019 L894,1019 L895,1020 L896,1020 L897,1021 L898,1021 L899,1022 L900,1022 L901,1023 L903,1023 L904,1024 L905,1024 L906,1025 L909,1025 L910,1026 L912,1026 L913,1027 L916,1027 L917,1028 L922,1028 L923,1029 L931,1029 L932,1030 L970,1030 L971,1029 L971,966 L970,965 L950,965 L949,964 L946,964 L945,963 L944,963 L939,958 L939,955 L938,954 L938,900 L940,898 L969,898 L970,897 L970,835 L969,834 L940,834 L938,832 L938,788 L937,787 Z M105,782 L104,783 L97,783 L96,784 L92,784 L91,785 L87,785 L86,786 L84,786 L83,787 L80,787 L79,788 L77,788 L76,789 L74,789 L73,790 L72,790 L71,791 L69,791 L68,792 L67,792 L66,793 L65,793 L64,794 L63,794 L62,795 L61,795 L60,796 L59,796 L58,797 L57,797 L56,798 L55,798 L53,800 L52,800 L50,802 L49,802 L47,804 L46,804 L42,808 L41,808 L28,821 L28,822 L24,826 L24,827 L22,829 L22,830 L20,832 L20,833 L18,835 L18,836 L17,837 L17,838 L16,839 L16,840 L14,842 L14,843 L13,844 L13,846 L12,847 L12,848 L11,849 L11,850 L10,851 L10,853 L9,854 L9,855 L8,856 L8,858 L7,859 L7,861 L6,862 L6,864 L5,865 L5,868 L4,869 L4,872 L3,873 L3,877 L2,878 L2,883 L0,885 L0,928 L2,930 L2,935 L3,936 L3,940 L4,941 L4,944 L5,945 L5,948 L6,949 L6,951 L7,952 L7,954 L8,955 L8,957 L9,958 L9,960 L10,961 L10,962 L11,963 L11,964 L12,965 L12,967 L13,968 L13,969 L14,970 L14,971 L15,972 L15,973 L17,975 L17,976 L18,977 L18,978 L19,979 L19,980 L21,982 L21,983 L24,986 L24,987 L27,990 L27,991 L42,1006 L43,1006 L46,1009 L47,1009 L50,1012 L51,1012 L53,1014 L54,1014 L55,1015 L56,1015 L57,1016 L58,1016 L60,1018 L61,1018 L62,1019 L63,1019 L64,1020 L65,1020 L66,1021 L68,1021 L69,1022 L70,1022 L71,1023 L73,1023 L74,1024 L76,1024 L77,1025 L79,1025 L80,1026 L82,1026 L83,1027 L86,1027 L87,1028 L90,1028 L91,1029 L95,1029 L96,1030 L102,1030 L103,1031 L115,1031 L116,1032 L127,1032 L128,1031 L140,1031 L141,1030 L146,1030 L147,1029 L152,1029 L153,1028 L156,1028 L157,1027 L160,1027 L161,1026 L163,1026 L164,1025 L166,1025 L167,1024 L169,1024 L170,1023 L171,1023 L172,1022 L174,1022 L175,1021 L176,1021 L177,1020 L178,1020 L179,1019 L180,1019 L181,1018 L182,1018 L183,1017 L184,1017 L185,1016 L186,1016 L187,1015 L188,1015 L190,1013 L191,1013 L192,1012 L193,1012 L196,1009 L197,1009 L200,1006 L201,1006 L216,991 L216,990 L219,987 L219,986 L222,983 L222,982 L224,980 L224,979 L225,978 L225,977 L227,975 L227,974 L228,973 L228,972 L229,971 L229,970 L230,969 L230,968 L231,967 L231,965 L232,964 L232,963 L233,962 L233,961 L234,960 L234,958 L235,957 L235,955 L237,953 L240,956 L240,959 L241,960 L241,963 L242,964 L242,966 L243,967 L243,969 L244,970 L244,972 L245,973 L245,975 L246,976 L246,977 L247,978 L247,979 L248,980 L248,981 L249,982 L249,983 L250,984 L250,985 L252,987 L252,988 L254,990 L254,991 L256,993 L256,994 L260,998 L260,999 L270,1009 L271,1009 L274,1012 L275,1012 L278,1015 L279,1015 L280,1016 L281,1016 L283,1018 L284,1018 L285,1019 L286,1019 L287,1020 L288,1020 L289,1021 L290,1021 L291,1022 L292,1022 L293,1023 L294,1023 L295,1024 L297,1024 L298,1025 L299,1025 L300,1026 L302,1026 L303,1027 L306,1027 L307,1028 L309,1028 L310,1029 L313,1029 L314,1030 L318,1030 L319,1031 L326,1031 L327,1032 L355,1032 L356,1031 L362,1031 L363,1030 L367,1030 L368,1029 L371,1029 L372,1028 L375,1028 L376,1027 L378,1027 L379,1026 L381,1026 L382,1025 L384,1025 L385,1024 L386,1024 L387,1023 L389,1023 L390,1022 L391,1022 L392,1021 L393,1021 L394,1020 L395,1020 L396,1019 L397,1019 L399,1017 L400,1017 L401,1016 L402,1016 L405,1013 L406,1013 L408,1011 L409,1011 L424,996 L424,995 L427,992 L427,991 L429,989 L429,988 L430,987 L430,986 L432,984 L432,983 L433,982 L433,981 L434,980 L434,979 L435,978 L435,977 L436,976 L436,974 L437,973 L437,972 L438,971 L438,969 L439,968 L439,966 L440,965 L440,962 L441,961 L441,958 L442,957 L442,953 L443,952 L443,946 L444,945 L444,919 L443,918 L443,912 L442,911 L442,907 L441,906 L441,903 L440,902 L440,899 L439,898 L439,896 L438,895 L438,893 L437,892 L437,891 L436,890 L436,888 L435,887 L435,886 L434,885 L434,884 L433,883 L433,882 L432,881 L432,880 L430,878 L430,877 L429,876 L429,875 L427,873 L427,872 L424,869 L424,868 L409,853 L408,853 L405,850 L404,850 L402,848 L401,848 L400,847 L399,847 L397,845 L396,845 L395,844 L394,844 L393,843 L392,843 L391,842 L390,842 L389,841 L387,841 L386,840 L385,840 L384,839 L382,839 L381,838 L379,838 L378,837 L376,837 L375,836 L372,836 L371,835 L368,835 L367,834 L363,834 L362,833 L356,833 L355,832 L326,832 L325,833 L319,833 L318,834 L314,834 L313,835 L310,835 L309,836 L307,836 L306,837 L303,837 L302,838 L300,838 L299,839 L298,839 L297,840 L295,840 L294,841 L293,841 L292,842 L291,842 L290,843 L289,843 L288,844 L287,844 L286,845 L285,845 L284,846 L283,846 L282,847 L281,847 L279,849 L278,849 L275,852 L274,852 L271,855 L270,855 L259,866 L259,867 L256,870 L256,871 L254,873 L254,874 L252,876 L252,877 L250,879 L250,880 L249,881 L249,882 L248,883 L248,884 L247,885 L247,886 L246,887 L246,888 L245,889 L245,891 L244,892 L244,894 L243,895 L243,897 L242,898 L242,900 L241,901 L241,904 L240,905 L240,908 L239,909 L239,914 L238,915 L238,924 L237,925 L237,933 L235,935 L160,935 L159,936 L159,937 L157,939 L157,940 L156,941 L156,942 L153,945 L153,946 L148,951 L147,951 L144,954 L143,954 L141,956 L140,956 L139,957 L138,957 L137,958 L135,958 L134,959 L132,959 L131,960 L126,960 L125,961 L115,961 L114,960 L110,960 L109,959 L106,959 L105,958 L104,958 L103,957 L102,957 L101,956 L100,956 L98,954 L97,954 L88,945 L88,944 L86,942 L86,941 L85,940 L85,939 L84,938 L84,937 L83,936 L83,935 L82,934 L82,932 L81,931 L81,929 L80,928 L80,925 L79,924 L79,920 L78,919 L78,895 L79,894 L79,889 L80,888 L80,885 L81,884 L81,882 L82,881 L82,879 L83,878 L83,877 L84,876 L84,875 L85,874 L85,873 L86,872 L86,871 L88,869 L88,868 L97,859 L98,859 L100,857 L101,857 L102,856 L103,856 L104,855 L106,855 L107,854 L109,854 L110,853 L116,853 L117,852 L123,852 L124,853 L130,853 L131,854 L134,854 L135,855 L136,855 L137,856 L138,856 L139,857 L140,857 L141,858 L142,858 L143,859 L144,859 L148,863 L149,863 L152,866 L152,867 L156,871 L156,872 L157,873 L157,874 L158,875 L158,876 L160,878 L239,878 L240,877 L240,874 L239,873 L239,869 L238,868 L238,866 L237,865 L237,862 L236,861 L236,859 L235,858 L235,856 L234,855 L234,854 L233,853 L233,851 L232,850 L232,849 L231,848 L231,846 L230,845 L230,844 L229,843 L229,842 L228,841 L228,840 L226,838 L226,837 L225,836 L225,835 L223,833 L223,832 L221,830 L221,829 L219,827 L219,826 L216,823 L216,822 L202,808 L201,808 L197,804 L196,804 L194,802 L193,802 L191,800 L190,800 L188,798 L187,798 L186,797 L185,797 L184,796 L183,796 L182,795 L181,795 L180,794 L179,794 L178,793 L177,793 L176,792 L175,792 L174,791 L172,791 L171,790 L169,790 L168,789 L167,789 L166,788 L163,788 L162,787 L160,787 L159,786 L156,786 L155,785 L152,785 L151,784 L146,784 L145,783 L139,783 L138,782 Z M1869,773 L1868,774 L1868,1029 L1869,1030 L1906,1030 L1907,1029 L1907,952 L1909,950 L1915,956 L1915,957 L1921,963 L1921,964 L1927,970 L1927,971 L1933,977 L1933,978 L1939,984 L1939,985 L1945,991 L1945,992 L1952,999 L1952,1000 L1958,1006 L1958,1007 L1964,1013 L1964,1014 L1970,1020 L1970,1021 L1976,1027 L1976,1028 L1978,1030 L2029,1030 L2030,1029 L2029,1028 L2029,1027 L2017,1015 L2017,1014 L2005,1002 L2005,1001 L1992,988 L1992,987 L1980,975 L1980,974 L1968,962 L1968,961 L1956,949 L1956,948 L1944,936 L1944,935 L1943,934 L1954,923 L1954,922 L1965,911 L1965,910 L1977,898 L1977,897 L1989,885 L1989,884 L2000,873 L2000,872 L2012,860 L2012,859 L2023,848 L2023,847 L2030,840 L2029,839 L1977,839 L1971,845 L1971,846 L1966,851 L1966,852 L1961,857 L1961,858 L1956,863 L1956,864 L1952,868 L1952,869 L1947,874 L1947,875 L1942,880 L1942,881 L1937,886 L1937,887 L1932,892 L1932,893 L1927,898 L1927,899 L1922,904 L1922,905 L1917,910 L1917,911 L1913,915 L1913,916 L1909,920 L1907,918 L1907,774 L1906,773 Z M1540,773 L1539,774 L1539,1029 L1540,1030 L1577,1030 L1578,1029 L1578,774 L1577,773 Z M1628,762 L1627,763 L1622,763 L1621,764 L1619,764 L1618,765 L1617,765 L1615,767 L1614,767 L1609,772 L1609,773 L1607,775 L1607,776 L1606,777 L1606,779 L1605,780 L1605,783 L1604,784 L1604,791 L1605,792 L1605,795 L1606,796 L1606,798 L1607,799 L1607,800 L1608,801 L1608,802 L1615,809 L1616,809 L1617,810 L1618,810 L1619,811 L1621,811 L1622,812 L1625,812 L1626,813 L1632,813 L1633,812 L1637,812 L1638,811 L1639,811 L1640,810 L1641,810 L1642,809 L1643,809 L1646,806 L1647,806 L1648,805 L1648,804 L1651,801 L1651,800 L1652,799 L1652,797 L1653,796 L1653,794 L1654,793 L1654,782 L1653,781 L1653,779 L1652,778 L1652,776 L1650,774 L1650,773 L1643,766 L1642,766 L1641,765 L1640,765 L1639,764 L1637,764 L1636,763 L1632,763 L1631,762 Z"/></g>
  </g>
</svg>
